<svg width="36" height="36" viewBox="0 0 36 36" fill="none" xmlns="http://www.w3.org/2000/svg">
<rect width="36" height="36" rx="18" fill="url(#paint0_linear_362_512)"/>
<path d="M15.1875 19.5C15.1875 19.6036 15.1036 19.6875 15 19.6875C14.8964 19.6875 14.8125 19.6036 14.8125 19.5C14.8125 19.3964 14.8964 19.3125 15 19.3125C15.1036 19.3125 15.1875 19.3964 15.1875 19.5Z" fill="#F5F5F5" stroke="#F5F5F5" stroke-width="1.5"/>
<path d="M21 20.4375C21.5178 20.4375 21.9375 20.0178 21.9375 19.5C21.9375 18.9822 21.5178 18.5625 21 18.5625C20.4822 18.5625 20.0625 18.9822 20.0625 19.5C20.0625 20.0178 20.4822 20.4375 21 20.4375Z" fill="#F5F5F5"/>
<path d="M12.9751 13.5C14.601 12.9904 16.2963 12.7374 18.0001 12.75C19.7039 12.7374 21.3992 12.9904 23.0251 13.5" stroke="#F5F5F5" stroke-width="1.5" stroke-linecap="round" stroke-linejoin="round"/>
<path d="M23.0251 22.5C21.3992 23.0096 19.7039 23.2626 18.0001 23.25C16.2963 23.2626 14.601 23.0096 12.9751 22.5" stroke="#F5F5F5" stroke-width="1.5" stroke-linecap="round" stroke-linejoin="round"/>
<path d="M20.5312 23.0719L21.6655 25.3219C21.7385 25.4753 21.8627 25.5986 22.0166 25.6704C22.1706 25.7423 22.3448 25.7583 22.5093 25.7157C24.8062 25.1532 26.7937 24.1782 28.2374 22.9219C28.3462 22.8259 28.4253 22.7007 28.4652 22.5611C28.505 22.4215 28.5041 22.2734 28.4624 22.1344L25.2843 11.5219C25.2533 11.4133 25.1974 11.3135 25.1208 11.2304C25.0443 11.1474 24.9494 11.0835 24.8437 11.0438C23.9458 10.6754 23.0172 10.3868 22.0687 10.1813C21.8864 10.1414 21.6958 10.17 21.5332 10.2616C21.3707 10.3532 21.2476 10.5015 21.1874 10.6782L20.4468 12.9188" stroke="#F5F5F5" stroke-width="1.5" stroke-linecap="round" stroke-linejoin="round"/>
<path d="M15.4686 23.0719L14.3342 25.3219C14.2612 25.4753 14.1371 25.5986 13.9831 25.6704C13.8292 25.7423 13.655 25.7583 13.4905 25.7157C11.1936 25.1532 9.20611 24.1782 7.76236 22.9219C7.65351 22.8259 7.57447 22.7007 7.53459 22.5611C7.49471 22.4215 7.49567 22.2734 7.53736 22.1344L10.7155 11.5219C10.7464 11.4133 10.8024 11.3135 10.8789 11.2304C10.9554 11.1474 11.0504 11.0835 11.1561 11.0438C12.054 10.6754 12.9826 10.3868 13.9311 10.1813C14.1134 10.1414 14.304 10.17 14.4665 10.2616C14.6291 10.3532 14.7522 10.5015 14.8124 10.6782L15.553 12.9188" stroke="#F5F5F5" stroke-width="1.5" stroke-linecap="round" stroke-linejoin="round"/>
<defs>
<linearGradient id="paint0_linear_362_512" x1="18" y1="0" x2="18" y2="36" gradientUnits="userSpaceOnUse">
<stop stop-color="#4F74EB"/>
<stop offset="1" stop-color="#434DCB"/>
</linearGradient>
</defs>
</svg>
