<svg width="182" height="33" viewBox="0 0 182 33" fill="none" xmlns="http://www.w3.org/2000/svg">
<path d="M6.42059 26.0588H8.53824H10.6559V23.9412V21.8235H12.7735V19.7059V17.5882V15.4706V13.3529V11.2353V9.11765V7V4.88235H10.6559V2.7647V0.647057H8.53824H6.42059V2.7647V4.88235H8.53824V7V9.11765V11.2353V13.3529V15.4706V17.5882V19.7059V21.8235H6.42059H4.30294H2.18529V23.9412V26.0588M4.30294 4.88235H6.42059H8.53824V7V9.11765V11.2353V13.3529V15.4706V17.5882V19.7059V21.8235H6.42059H4.30294V19.7059V17.5882V15.4706V13.3529V11.2353V9.11765V7V4.88235ZM2.18529 0.647057V2.7647V4.88235H4.30294H6.42059V2.7647V0.647057M0.0676471 4.88235V7V9.11765V11.2353V13.3529V15.4706V17.5882V19.7059V21.8235L2.18529 23.9412H4.30294V21.8235V19.7059V17.5882V15.4706V13.3529V11.2353V9.11765V7V4.88235V2.7647H2.18529H0.0676471M2.18529 26.0588H0.0676471H8.53824V23.9412H10.6559H12.7735V21.8235V19.7059V17.5882V15.4706V13.3529V11.2353V9.11765V7V4.88235V2.7647H10.6559H8.53824V0.647057H6.42059H0.0676471V2.7647V7V9.11765V11.2353V13.3529V15.4706V17.5882V19.7059V21.8235V26.0588M28.8695 11.2353H26.7518V9.11765V7H24.6342H22.5165V9.11765V11.2353H24.6342V13.3529V15.4706H26.7518H28.8695M20.3989 7V9.11765H18.2812H16.1636V11.2353V13.3529V15.4706V17.5882V19.7059V21.8235H18.2812V23.9412V26.0588H20.3989H24.6342V23.9412H26.7518H28.8695V21.8235V19.7059H26.7518H24.6342V21.8235H22.5165H20.3989V19.7059V17.5882V15.4706V13.3529V11.2353H22.5165V9.11765V7M20.3989 13.3529V11.2353H22.5165H24.6342V13.3529H22.5165H20.3989ZM24.6342 17.5882H26.7518H28.8695V15.4706V9.11765H26.7518H24.6342V7H22.5165H18.2812V9.11765V11.2353H16.1636V13.3529V15.4706V17.5882V19.7059V21.8235V23.9412H18.2812H20.3989V26.0588H24.6342H26.7518V23.9412V21.8235H24.6342H22.5165H20.3989V19.7059V17.5882M18.2812 17.5882H20.3989H26.7518V15.4706V13.3529H24.6342H22.5165H20.3989H18.2812V15.4706V17.5882ZM39.6754 26.0588V28.1765H37.5578H35.4401H33.3225V30.2941V32.4118H37.5578H39.6754V30.2941H41.7931H43.9107V28.1765V26.0588H41.7931V23.9412V21.8235V19.7059V17.5882H43.9107V15.4706V13.3529V11.2353V9.11765V7V4.88235H41.7931H39.6754V7V11.2353V13.3529V15.4706V17.5882H37.5578V19.7059V21.8235V23.9412M35.4401 21.8235V23.9412V26.0588L37.5578 23.9412V21.8235V19.7059V17.5882L35.4401 19.7059V21.8235ZM39.6754 11.2353V13.3529V15.4706V17.5882H37.5578L35.4401 15.4706V13.3529V11.2353H37.5578M37.5578 7V9.11765V11.2353H39.6754V7M35.4401 7V9.11765H33.3225H31.2048V11.2353V13.3529V15.4706V17.5882H33.3225V19.7059V21.8235L35.4401 23.9412H37.5578V21.8235V19.7059H35.4401V15.4706V13.3529V11.2353H37.5578V9.11765V7M35.4401 26.0588H33.3225L39.6754 28.1765H37.5578H35.4401H33.3225H31.2048V30.2941V32.4118H33.3225H37.5578H39.6754H41.7931V30.2941V28.1765H43.9107V26.0588V23.9412H41.7931H39.6754V21.8235V19.7059H41.7931H43.9107V17.5882V15.4706V13.3529V11.2353H41.7931V9.11765V7H39.6754H33.3225V9.11765V11.2353H31.2048V13.3529V15.4706V17.5882V19.7059H33.3225V21.8235V26.0588M61.0613 11.2353H58.9437V9.11765V7H56.826H54.7084V9.11765V11.2353H56.826V13.3529V15.4706H58.9437H61.0613M52.5908 7V9.11765H50.4731H48.3555V11.2353V13.3529V15.4706V17.5882V19.7059V21.8235H50.4731V23.9412V26.0588H52.5908H56.826V23.9412H58.9437H61.0613V21.8235V19.7059H58.9437H56.826V21.8235H54.7084H52.5908V19.7059V17.5882V15.4706V13.3529V11.2353H54.7084V9.11765V7M52.5908 13.3529V11.2353H54.7084H56.826V13.3529H54.7084H52.5908ZM56.826 17.5882H58.9437H61.0613V15.4706V9.11765H58.9437H56.826V7H54.7084H50.4731V9.11765V11.2353H48.3555V13.3529V15.4706V17.5882V19.7059V21.8235V23.9412H50.4731H52.5908V26.0588H56.826H58.9437V23.9412V21.8235H56.826H54.7084H52.5908V19.7059V17.5882M50.4731 17.5882H52.5908H58.9437V15.4706V13.3529H56.826H54.7084H52.5908H50.4731V15.4706V17.5882ZM71.8673 7H73.9849V9.11765V11.2353H76.1026V13.3529V15.4706V17.5882V19.7059V21.8235V23.9412V26.0588H73.9849H71.8673V23.9412V21.8235V19.7059V17.5882V15.4706V13.3529V11.2353H69.7497L67.632 9.11765V7M63.3967 21.8235V19.7059V17.5882V15.4706V13.3529V11.2353V9.11765H65.5144H67.632H69.7497L71.8673 7V9.11765H73.9849H76.1026V11.2353V13.3529V15.4706V17.5882V19.7059V23.9412H73.9849H71.8673V21.8235V19.7059V17.5882V15.4706V13.3529V11.2353H69.7497V13.3529H65.5144V11.2353L67.632 9.11765V11.2353V13.3529V15.4706V17.5882V19.7059V23.9412H65.5144M63.3967 26.0588V23.9412V21.8235V19.7059V17.5882V15.4706V13.3529V11.2353V9.11765V7H65.5144H67.632V9.11765V11.2353V13.3529V15.4706V17.5882V19.7059V23.9412V26.0588H65.5144H63.3967ZM93.4689 11.2353H95.5865V13.3529V15.4706V17.5882V19.7059V21.8235H93.4689H91.3512V19.7059V17.5882V15.4706V13.3529V11.2353H93.4689ZM95.5865 26.0588V23.9412H97.7042H99.8218V21.8235V19.7059V17.5882V15.4706V13.3529V11.2353H97.7042V9.11765V7H95.5865H93.4689H91.3512H89.2336V9.11765V11.2353H87.1159V13.3529V15.4706V17.5882V19.7059V21.8235V23.9412H89.2336H91.3512V26.0588M95.5865 11.2353V13.3529V15.4706V17.5882V19.7059V21.8235H93.4689H91.3512V19.7059V17.5882V15.4706V13.3529V11.2353H93.4689H95.5865ZM91.3512 26.0588H89.2336H97.7042V23.9412V21.8235H99.8218V19.7059V17.5882V15.4706V13.3529V11.2353V9.11765H97.7042H95.5865V7H93.4689H91.3512V9.11765H89.2336H87.1159V11.2353V13.3529V15.4706V17.5882V19.7059V21.8235H89.2336V23.9412V26.0588M109.565 11.2353V9.11765H111.682H113.8V11.2353V13.3529V15.4706H111.682H109.565M103.212 21.8235V19.7059V17.5882V15.4706V13.3529V11.2353V9.11765H105.33H107.447V7H109.565H111.682V9.11765V11.2353H113.8V13.3529H111.682L109.565 11.2353H107.447V13.3529V15.4706V17.5882V19.7059V23.9412H105.33M103.212 26.0588V23.9412V21.8235V19.7059V17.5882V15.4706V13.3529V11.2353H105.33V9.11765V7H107.447H109.565V11.2353H107.447V13.3529V15.4706V17.5882V19.7059V23.9412V26.0588H105.33H103.212ZM130.085 11.2353V13.3529V15.4706L127.967 13.3529V11.2353M123.732 19.7059V17.5882V15.4706V13.3529V11.2353V9.11765V7V4.88235V2.7647H125.85H127.967V4.88235V7V9.11765V11.2353V13.3529V15.4706V17.5882V19.7059V21.8235V23.9412H125.85H123.732M130.085 0.647057H132.202H134.32V2.7647V4.88235H136.438V7V9.11765V11.2353V13.3529V15.4706V17.5882V19.7059V21.8235H134.32V23.9412V26.0588H132.202H130.085H127.967H125.85H123.732V19.7059V17.5882V15.4706V13.3529V11.2353V9.11765V7V4.88235V2.7647V0.647057H127.967H130.085ZM132.202 11.2353V9.11765V7V4.88235H130.085H127.967H125.85V2.7647V0.647057H127.967V2.7647V4.88235V7V9.11765V11.2353V13.3529V15.4706V17.5882V19.7059V21.8235H130.085H132.202V19.7059V17.5882V15.4706L130.085 13.3529V11.2353M125.85 15.4706V13.3529V11.2353H127.967H132.202V9.11765V7V4.88235H130.085L127.967 2.7647V0.647057H130.085H132.202V2.7647H134.32H136.438V4.88235V7V9.11765V11.2353H134.32V13.3529V15.4706H136.438V17.5882V19.7059V21.8235V23.9412H134.32H132.202V26.0588H130.085H125.85V23.9412V21.8235H127.967H130.085H132.202V19.7059V17.5882V15.4706H125.85ZM139.828 19.7059V17.5882V15.4706V13.3529V11.2353V9.11765H141.945H144.063V11.2353V13.3529V15.4706V17.5882V19.7059V21.8235H146.181V19.7059H148.298H150.416V21.8235V23.9412H148.298H146.181V26.0588H144.063V23.9412H141.945H139.828M148.298 19.7059V17.5882V15.4706V13.3529V11.2353V9.11765H150.416H152.534V11.2353V13.3529V15.4706V17.5882V19.7059V21.8235V23.9412H150.416L148.298 21.8235M141.945 26.0588V23.9412V21.8235H139.828V19.7059V17.5882V15.4706V13.3529V11.2353V9.11765V7H141.945H144.063V9.11765V11.2353V13.3529V15.4706V17.5882V19.7059V21.8235H146.181L148.298 19.7059V17.5882V15.4706V13.3529V11.2353V9.11765V7H150.416H152.534V9.11765V11.2353V13.3529V15.4706V17.5882V19.7059V23.9412V26.0588H150.416H148.298H144.063H141.945ZM160.159 18.6471H162.277H164.394V16.5294V14.4118H162.277H160.159V16.5294V18.6471ZM164.394 9.11765V7H162.277H160.159V9.11765H158.041H155.924V11.2353V13.3529H158.041V15.4706V17.5882H155.924V19.7059V21.8235H158.041V23.9412V26.0588H160.159H164.394V23.9412H166.512H168.63V21.8235V19.7059H166.512V17.5882V15.4706H168.63V13.3529V9.11765H166.512H164.394ZM164.394 11.2353V13.3529H166.512H168.63L166.512 11.2353V9.11765V7H164.394H162.277V9.11765M164.394 21.8235H162.277H160.159V19.7059H158.041H155.924V21.8235V23.9412H158.041H160.159V26.0588H164.394H166.512V23.9412V21.8235H168.63V19.7059V17.5882H166.512H164.394V19.7059M162.277 17.5882V19.7059H164.394L162.277 21.8235H160.159V19.7059V17.5882H162.277ZM164.394 11.2353V13.3529V15.4706H162.277V13.3529H160.159M155.924 15.4706H158.041H160.159V13.3529L162.277 9.11765V7H160.159H158.041V9.11765V11.2353H155.924V13.3529V15.4706ZM177.314 21.8235V19.7059V17.5882V15.4706V13.3529V11.2353H175.196H173.078V13.3529V15.4706V17.5882V19.7059V21.8235V23.9412H175.196H177.314V26.0588L179.431 23.9412V21.8235M177.314 7V9.11765V11.2353L179.431 9.11765V7M170.961 11.2353H173.078H175.196H177.314H181.549V9.11765V7H179.431H175.196H173.078H170.961V9.11765V11.2353ZM173.078 7H175.196H177.314L175.196 4.88235H173.078M177.314 7V9.11765V2.7647H175.196H173.078V4.88235V9.11765V11.2353H175.196M177.314 26.0588H175.196H181.549V23.9412V21.8235H179.431L177.314 19.7059V17.5882V15.4706V13.3529V11.2353V7H175.196H173.078V9.11765V13.3529V15.4706V17.5882V19.7059V21.8235H175.196V23.9412V26.0588" fill="#EAEDF4"/>
</svg>
