<svg width="36" height="36" viewBox="0 0 36 36" fill="none" xmlns="http://www.w3.org/2000/svg">
<rect x="0.000488281" width="36" height="36" rx="18" fill="url(#paint0_linear_318_212)"/>
<path d="M26.5225 13.2281C27.15 13.8543 27.648 14.5981 27.9877 15.4169C28.3274 16.2357 28.5023 17.1135 28.5023 18C28.5023 18.8865 28.3274 19.7643 27.9877 20.5832C27.648 21.402 27.15 22.1458 26.5225 22.7719" stroke="white" stroke-width="1.5" stroke-linecap="round" stroke-linejoin="round"/>
<path d="M13.5005 21.75H9.00049C8.80158 21.75 8.61081 21.671 8.47016 21.5303C8.32951 21.3897 8.25049 21.1989 8.25049 21V15C8.25049 14.8011 8.32951 14.6103 8.47016 14.4697C8.61081 14.329 8.80158 14.25 9.00049 14.25H13.5005L20.2505 9V27L13.5005 21.75Z" stroke="white" stroke-width="1.5" stroke-linecap="round" stroke-linejoin="round"/>
<path d="M13.5005 14.25V21.75" stroke="white" stroke-width="1.5" stroke-linecap="round" stroke-linejoin="round"/>
<path d="M23.8691 15.8812C24.1481 16.1591 24.3694 16.4893 24.5204 16.8529C24.6714 17.2164 24.7491 17.6063 24.7491 18C24.7491 18.3937 24.6714 18.7835 24.5204 19.1471C24.3694 19.5107 24.1481 19.8409 23.8691 20.1187" stroke="white" stroke-width="1.5" stroke-linecap="round" stroke-linejoin="round"/>
<defs>
<linearGradient id="paint0_linear_318_212" x1="18.0005" y1="0" x2="18.0005" y2="36" gradientUnits="userSpaceOnUse">
<stop stop-color="#4F74EB"/>
<stop offset="1" stop-color="#434DCB"/>
</linearGradient>
</defs>
</svg>
